User Type,Username,Date,Text
,.Leto.,2012-02-19T14:17Z,"thanks, really nice quality. if you need english subtitles you can use the ones from the Santi torrent.

technical infos:

Puss.in.Boots.The.Three.Diablos.2011.BRRip.XviD.AC3-PRESTiGE.avi

      Format : AVI
      Format/Info : Audio Video Interleave
      File size : 395 MiB
      Duration : 13mn 5s
      Overall bit rate : 4 215 Kbps
      Writing application : VirtualDubMod 1.5.10.2 (build 2540/release)
      Writing library : VirtualDubMod build 2540/release
   Video #0
      ID : 0
      Format : MPEG-4 Visual
      Format profile : Advanced Simple@L5
      Format settings, BVOP : 2
      Format settings, QPel : No
      Format settings, GMC : No warppoints
      Format settings, Matrix : Default (H.263)
      Codec ID : XVID
      Codec ID/Hint : XviD
      Duration : 13mn 5s
      Bit rate : 3 757 Kbps
      Width : 1 280 pixels
      Height : 720 pixels
      Display aspect ratio : 16:9
      Frame rate : 23.976 fps
      Color space : YUV
      Chroma subsampling : 4:2:0
      Bit depth : 8 bits
      Scan type : Progressive
      Compression mode : Lossy
      Bits/(Pixel*Frame) : 0.170
      Stream size : 352 MiB (89%)
      Writing library : XviD 1.2.1 (UTC 2008-12-04)
   Audio #1
      ID : 1
      Format : AC-3
      Format/Info : Audio Coding 3
      Mode extension : CM (complete main)
      Codec ID : 2000
      Duration : 13mn 5s
      Bit rate mode : Constant
      Bit rate : 448 Kbps
      Channel(s) : 6 channels
      Channel positions : Front: L C R, Side: L R, LFE
      Sampling rate : 48.0 KHz
      Bit depth : 16 bits
      Compression mode : Lossy
      Stream size : 41.9 MiB (11%)
      Alignment : Split accross interleaves
      Interleave, duration : 42 ms (1.00 video frame)
      Interleave, preload duration : 500 ms"
,DriverAus,2012-02-20T16:43Z,Svensk text: http://www.undertexter.se/29483/
